<?xml version="1.0" encoding="UTF-8" standalone="no"?>
<svg
   id="svg4031"
   height="24"
   width="24"
   version="1.1"
   xmlns="http://www.w3.org/2000/svg"
   xmlns:svg="http://www.w3.org/2000/svg"
   xmlns:rdf="http://www.w3.org/1999/02/22-rdf-syntax-ns#"
   xmlns:cc="http://creativecommons.org/ns#"
   xmlns:dc="http://purl.org/dc/elements/1.1/">
  <defs
     id="defs4033" />
  <metadata
     id="metadata4036">
    <rdf:RDF>
      <cc:Work
         rdf:about="">
        <dc:format>image/svg+xml</dc:format>
        <dc:type
           rdf:resource="http://purl.org/dc/dcmitype/StillImage" />
      </cc:Work>
    </rdf:RDF>
  </metadata>
  <path
     id="path28"
     style="color:#000000;display:inline;overflow:visible;visibility:visible;opacity:0.9;vector-effect:none;fill:#555761;fill-opacity:1;fill-rule:nonzero;stroke:none;stroke-width:1;stroke-linecap:butt;stroke-linejoin:miter;stroke-miterlimit:4;stroke-dasharray:none;stroke-dashoffset:0;stroke-opacity:1;marker:none;enable-background:accumulate;font-variation-settings:normal;-inkscape-stroke:none;stop-color:#000000;stop-opacity:1"
     d="M 11.25 3 A 0.25 0.25 0 0 0 11 3.25 L 11 4.75 C 11 4.8889999 11.112 5 11.25 5 L 11.75 5 A 0.25 0.25 0 0 0 12 4.75 L 12 3.25 A 0.25 0.25 0 0 0 11.75 3 L 11.25 3 z M 17.861328 5.53125 A 0.25 0.25 0 0 0 17.835938 5.5332031 A 0.25 0.25 0 0 0 17.6875 5.6054688 L 16.626953 6.6660156 C 16.528663 6.7643035 16.529373 6.9219507 16.626953 7.0195312 L 16.980469 7.3730469 A 0.25 0.25 0 0 0 17.333984 7.3730469 L 18.394531 6.3125 A 0.25 0.25 0 0 0 18.394531 5.9589844 L 18.041016 5.6054688 A 0.25 0.25 0 0 0 17.861328 5.53125 z M 11.5 7 C 10.092662 7 8.8112237 7.5349572 7.8378906 8.40625 L 7.5761719 8.6679688 C 7.5560406 8.6881001 7.5341153 8.70471 7.5117188 8.7207031 C 6.5769824 9.7068289 6 11.035905 6 12.5 C 6 15.534709 8.465289 18 11.5 18 C 14.534705 18 17.000006 15.534709 17 12.5 C 17 9.4652924 14.534705 7 11.5 7 z M 11.400391 8.0625 A 4.4539089 4.4539089 0 0 1 11.402344 8.0625 A 4.4539089 4.4539089 0 0 1 11.486328 8.0625 L 11.492188 8.0625 A 3.7115908 3.7115908 0 0 0 10.001953 11.029297 A 3.7115908 3.7115908 0 0 0 13.712891 14.744141 A 3.7115908 3.7115908 0 0 0 15.599609 14.222656 A 4.4539089 4.4539089 0 1 1 11.400391 8.0625 z M 2.25 12 A 0.25 0.25 0 0 0 2 12.25 L 2 12.75 C 2 12.889 2.1120001 13 2.25 13 L 3.75 13 A 0.25 0.25 0 0 0 4 12.75 L 4 12.25 A 0.25 0.25 0 0 0 3.75 12 L 2.25 12 z M 19.25 12 A 0.25 0.25 0 0 0 19 12.25 L 19 12.75 C 19 12.889 19.112 13 19.25 13 L 20.75 13 A 0.25 0.25 0 0 0 21 12.75 L 21 12.25 A 0.25 0.25 0 0 0 20.75 12 L 19.25 12 z M 5.8398438 17.552734 A 0.25 0.25 0 0 0 5.6660156 17.626953 L 4.6054688 18.6875 C 4.5071807 18.78579 4.5078878 18.943435 4.6054688 19.041016 L 4.9589844 19.394531 A 0.25 0.25 0 0 0 5.3125 19.394531 L 6.3730469 18.333984 A 0.25 0.25 0 0 0 6.3730469 17.980469 L 6.0195312 17.626953 A 0.25 0.25 0 0 0 5.8398438 17.552734 z M 17.152344 17.552734 A 0.25 0.25 0 0 0 16.980469 17.626953 L 16.626953 17.980469 C 16.528663 18.078759 16.529373 18.236403 16.626953 18.333984 L 17.6875 19.394531 A 0.25 0.25 0 0 0 18.041016 19.394531 L 18.394531 19.041016 A 0.25 0.25 0 0 0 18.394531 18.6875 L 17.333984 17.626953 A 0.25 0.25 0 0 0 17.152344 17.552734 z M 11.25 20 A 0.25 0.25 0 0 0 11 20.25 L 11 21.75 C 11 21.889 11.112 22 11.25 22 L 11.75 22 A 0.25 0.25 0 0 0 12 21.75 L 12 20.25 A 0.25 0.25 0 0 0 11.75 20 L 11.25 20 z " />
  <rect
     style="font-variation-settings:normal;vector-effect:none;fill:#555761;fill-opacity:1;stroke:none;stroke-width:0.992;stroke-linecap:square;stroke-linejoin:miter;stroke-miterlimit:4;stroke-dasharray:none;stroke-dashoffset:0;stroke-opacity:1;-inkscape-stroke:none;marker:none;stop-color:#000000"
     id="rect2480-1-6-2-9-1-2-7-0"
     width="1.248"
     height="3.96"
     x="-0.16577788"
     y="7.5240593"
     rx="0.5"
     ry="0.5"
     transform="rotate(-45)" />
</svg>
