<?xml version="1.0" encoding="UTF-8" standalone="no"?>
<svg
   id="svg4031"
   height="24"
   width="24"
   version="1.1"
   xmlns="http://www.w3.org/2000/svg"
   xmlns:svg="http://www.w3.org/2000/svg"
   xmlns:rdf="http://www.w3.org/1999/02/22-rdf-syntax-ns#"
   xmlns:cc="http://creativecommons.org/ns#"
   xmlns:dc="http://purl.org/dc/elements/1.1/">
  <defs
     id="defs4033" />
  <metadata
     id="metadata4036">
    <rdf:RDF>
      <cc:Work
         rdf:about="">
        <dc:format>image/svg+xml</dc:format>
        <dc:type
           rdf:resource="http://purl.org/dc/dcmitype/StillImage" />
      </cc:Work>
    </rdf:RDF>
  </metadata>
  <path
     id="path28"
     style="color:#000000;font-variation-settings:normal;display:inline;overflow:visible;visibility:visible;opacity:0.65;vector-effect:none;fill:#555761;fill-opacity:1;fill-rule:nonzero;stroke:none;stroke-width:1;stroke-linecap:butt;stroke-linejoin:miter;stroke-miterlimit:4;stroke-dasharray:none;stroke-dashoffset:0;stroke-opacity:1;-inkscape-stroke:none;marker:none;enable-background:accumulate;stop-color:#000000;stop-opacity:1"
     d="M 11.25 3 C 11.111929 3 11 3.1119289 11 3.25 L 11 4.75 C 11 4.8889999 11.112 5 11.25 5 L 11.75 5 C 11.888071 5 12 4.8880711 12 4.75 L 12 3.25 C 12 3.1119289 11.888071 3 11.75 3 L 11.25 3 z M 17.861328 5.53125 C 17.852828 5.5314693 17.844367 5.5321243 17.835938 5.5332031 C 17.779708 5.5397831 17.727369 5.5652658 17.6875 5.6054688 L 16.626953 6.6660156 C 16.528663 6.7643035 16.529373 6.9219507 16.626953 7.0195312 L 16.980469 7.3730469 C 17.078099 7.4706518 17.236357 7.4706518 17.333984 7.3730469 L 18.394531 6.3125 C 18.492141 6.2148731 18.492141 6.056611 18.394531 5.9589844 L 18.041016 5.6054688 C 17.993586 5.5574995 17.928784 5.5307335 17.861328 5.53125 z M 11.5 7 C 10.523734 7 9.6077861 7.2579286 8.8125 7.7050781 L 9.5878906 8.4785156 C 10.128896 8.2251879 10.738448 8.0751994 11.400391 8.0625 L 11.402344 8.0625 C 11.430334 8.0622361 11.458338 8.0622361 11.486328 8.0625 L 11.492188 8.0625 C 11.040278 8.4001022 10.680025 8.8315362 10.425781 9.3183594 L 15.318359 14.210938 C 15.354223 14.246802 15.381566 14.287668 15.404297 14.330078 C 15.47055 14.295909 15.535305 14.260898 15.599609 14.222656 C 15.557215 14.32482 15.511145 14.424831 15.462891 14.521484 C 15.475102 14.663206 15.427274 14.809054 15.318359 14.917969 L 15.0625 15.173828 C 13.317607 17.549672 9.5868344 17.63494 7.8066406 15.023438 C 6.6313168 13.299336 6.860898 11.214234 7.9726562 9.7773438 L 7.2324219 9.0351562 C 6.4632768 9.9813316 6 11.187271 6 12.5 C 6 15.534709 8.465289 18 11.5 18 C 14.534705 18 17.000006 15.534709 17 12.5 C 17 9.4652924 14.534705 7 11.5 7 z M 10.111328 11.916016 C 10.438933 13.254417 11.491499 14.30513 12.830078 14.632812 L 10.111328 11.916016 z M 2.25 12 C 2.1119289 12 2 12.111929 2 12.25 L 2 12.75 C 2 12.889 2.1120001 13 2.25 13 L 3.75 13 C 3.8880711 13 4 12.888071 4 12.75 L 4 12.25 C 4 12.111929 3.8880711 12 3.75 12 L 2.25 12 z M 19.25 12 C 19.111929 12 19 12.111929 19 12.25 L 19 12.75 C 19 12.889 19.112 13 19.25 13 L 20.75 13 C 20.888071 13 21 12.888071 21 12.75 L 21 12.25 C 21 12.111929 20.888071 12 20.75 12 L 19.25 12 z M 5.8398438 17.552734 C 5.7744208 17.553734 5.7120133 17.580413 5.6660156 17.626953 L 4.6054688 18.6875 C 4.5071808 18.78579 4.5078878 18.943435 4.6054688 19.041016 L 4.9589844 19.394531 C 5.0566113 19.492141 5.2148734 19.492141 5.3125 19.394531 L 6.3730469 18.333984 C 6.4706518 18.236354 6.4706518 18.078096 6.3730469 17.980469 L 6.0195312 17.626953 C 5.9721023 17.578983 5.9072998 17.552214 5.8398438 17.552734 z M 17.152344 17.552734 C 17.087604 17.554234 17.025985 17.580883 16.980469 17.626953 L 16.626953 17.980469 C 16.528663 18.078759 16.529373 18.236403 16.626953 18.333984 L 17.6875 19.394531 C 17.78513 19.492141 17.943389 19.492141 18.041016 19.394531 L 18.394531 19.041016 C 18.492141 18.943386 18.492141 18.785127 18.394531 18.6875 L 17.333984 17.626953 C 17.286084 17.578493 17.220475 17.551684 17.152344 17.552734 z M 11.25 20 C 11.111929 20 11 20.111929 11 20.25 L 11 21.75 C 11 21.889 11.112 22 11.25 22 L 11.75 22 C 11.888071 22 12 21.888071 12 21.75 L 12 20.25 C 12 20.111929 11.888071 20 11.75 20 L 11.25 20 z " />
  <rect
     style="font-variation-settings:normal;vector-effect:none;fill:#555761;fill-opacity:1;stroke:none;stroke-width:0.992003;stroke-linecap:square;stroke-linejoin:miter;stroke-miterlimit:4;stroke-dasharray:none;stroke-dashoffset:0;stroke-opacity:1;-inkscape-stroke:none;marker:none;stop-color:#000000"
     id="rect2480-1-6-2-9-1"
     width="1.248"
     height="13.86"
     x="-0.16577819"
     y="7.5240593"
     rx="0.5"
     ry="0.5"
     transform="rotate(-45)" />
</svg>
