<?xml version="1.0" encoding="UTF-8" standalone="no"?>
<svg
   id="svg4031"
   height="48"
   width="48"
   version="1.1"
   xmlns="http://www.w3.org/2000/svg"
   xmlns:svg="http://www.w3.org/2000/svg"
   xmlns:rdf="http://www.w3.org/1999/02/22-rdf-syntax-ns#"
   xmlns:cc="http://creativecommons.org/ns#"
   xmlns:dc="http://purl.org/dc/elements/1.1/">
  <defs
     id="defs4033">
    <filter
       style="color-interpolation-filters:sRGB"
       id="filter3174"
       x="-0.047720931"
       y="-0.048282354"
       width="1.0954419"
       height="1.0965647">
      <feGaussianBlur
         stdDeviation="1.71"
         id="feGaussianBlur3176" />
    </filter>
    <filter
       style="color-interpolation-filters:sRGB"
       id="filter3174-4"
       x="-0.047720931"
       y="-0.048282354"
       width="1.0954419"
       height="1.0965647">
      <feGaussianBlur
         stdDeviation="1.71"
         id="feGaussianBlur3176-5" />
    </filter>
  </defs>
  <metadata
     id="metadata4036">
    <rdf:RDF>
      <cc:Work
         rdf:about="">
        <dc:format>image/svg+xml</dc:format>
        <dc:type
           rdf:resource="http://purl.org/dc/dcmitype/StillImage" />
      </cc:Work>
    </rdf:RDF>
  </metadata>
  <path
     id="path2555-7-8-5-0-9-2-7"
     style="color:#000000;font-variation-settings:normal;display:inline;overflow:visible;visibility:visible;opacity:0.5;vector-effect:none;fill:#555761;fill-opacity:1;fill-rule:nonzero;stroke:none;stroke-width:0.992;stroke-linecap:square;stroke-linejoin:miter;stroke-miterlimit:4;stroke-dasharray:none;stroke-dashoffset:0;stroke-opacity:1;-inkscape-stroke:none;marker:none;enable-background:accumulate;stop-color:#000000;stop-opacity:1"
     d="M 23.5,9 C 23.223,9 23,9.2230003 23,9.5 v 3 c 0,0.277 0.223,0.5 0.5,0.5 h 1 c 0.277,0 0.5,-0.223 0.5,-0.5 v -3 C 25,9.2230003 24.777,9 24.5,9 Z m 10.400391,3.892578 c -0.12781,0 -0.255582,0.04855 -0.353516,0.146484 l -2.123047,2.123047 c -0.195868,0.195869 -0.195868,0.511163 0,0.707032 l 0.707031,0.707031 c 0.195869,0.195868 0.511163,0.195868 0.707032,0 l 2.123047,-2.123047 c 0.195868,-0.195868 0.195868,-0.511163 0,-0.707031 l -0.707032,-0.707032 c -0.09793,-0.09793 -0.225707,-0.146484 -0.353515,-0.146484 z M 24,15 c -2.644854,0 -5.016549,1.152677 -6.664062,2.972656 l 1.199218,1.199219 c 1.267029,-1.433709 3.10939,-2.391818 5.302735,-2.433594 0.0459,-4.34e-4 0.09277,-4.34e-4 0.138671,0 h 0.01172 c -1.533108,1.144406 -2.438368,2.942336 -2.441406,4.855469 -9.4e-5,0.209702 0.01059,0.416843 0.03125,0.621094 l 5.425781,5.425781 c 0.20299,0.02051 0.408801,0.03124 0.617188,0.03125 1.087043,-0.0027 2.153436,-0.298119 3.08789,-0.853516 -0.445328,1.072826 -1.096444,1.957233 -1.875,2.652344 l 1.19336,1.193359 C 31.847325,29.016549 33.000006,26.644852 33,24 33,19.034115 28.965881,15 24,15 Z m -7.851562,4.613281 C 15.420167,20.912379 15,22.406507 15,24 c 0,4.965887 4.034109,9 9,9 1.593491,0 3.087619,-0.420167 4.386719,-1.148438 l -1.251953,-1.251953 c -3.053512,1.449053 -7.006311,0.71846 -9.179688,-2.470703 C 16.37088,25.804289 16.351897,23.078351 17.410156,20.875 Z M 9.5,23 C 9.2230003,23 9,23.223 9,23.5 v 1 C 9,24.777 9.2230003,25 9.5,25 h 3 c 0.277,0 0.5,-0.223 0.5,-0.5 v -1 C 13,23.223 12.777,23 12.5,23 Z m 26,0 C 35.223,23 35,23.223 35,23.5 v 1 c 0,0.277 0.223,0.5 0.5,0.5 h 3 c 0.277,0 0.5,-0.223 0.5,-0.5 v -1 C 39,23.223 38.777,23 38.5,23 Z m -19.984375,8.277344 c -0.12781,0 -0.255581,0.04855 -0.353516,0.146484 l -2.123047,2.123047 c -0.195868,0.195868 -0.195868,0.511163 0,0.707031 l 0.707032,0.707032 c 0.195868,0.195868 0.511163,0.195868 0.707031,0 l 2.123047,-2.123047 c 0.195868,-0.195869 0.195868,-0.511163 0,-0.707032 l -0.707031,-0.707031 c -0.09794,-0.09793 -0.225706,-0.146484 -0.353516,-0.146484 z M 23.5,35 C 23.223,35 23,35.223 23,35.5 v 3 c 0,0.277 0.223,0.5 0.5,0.5 h 1 c 0.277,0 0.5,-0.223 0.5,-0.5 v -3 C 25,35.223 24.777,35 24.5,35 Z" />
  <rect
     width="86"
     height="85"
     rx="6"
     ry="6"
     x="881.27277"
     y="-22.04542"
     id="rect3745"
     style="opacity:0.9;fill:#ffb380;fill-opacity:1;fill-rule:nonzero;stroke:none;filter:url(#filter3174)" />
  <rect
     width="86"
     height="85"
     rx="6"
     ry="6"
     x="878.00006"
     y="-22.40906"
     id="rect3745-5"
     style="opacity:0.9;fill:#ffb380;fill-opacity:1;fill-rule:nonzero;stroke:none;filter:url(#filter3174-4)" />
  <g
     transform="translate(-593,295)"
     id="g4" />
  <path
     id="path2"
     d="m 13.039062,11.625 c -0.195868,-0.195869 -0.511162,-0.195869 -0.707031,0 L 11.625,12.332031 c -0.195869,0.195869 -0.195869,0.511163 0,0.707031 L 34.960938,36.375 c 0.195868,0.195869 0.511162,0.195869 0.707031,0 L 36.375,35.667969 c 0.195869,-0.195869 0.195869,-0.511163 0,-0.707031 z"
     style="font-variation-settings:normal;vector-effect:none;fill:#555761;fill-opacity:1;stroke:none;stroke-width:0.992;stroke-linecap:square;stroke-linejoin:miter;stroke-miterlimit:4;stroke-dasharray:none;stroke-dashoffset:0;stroke-opacity:1;-inkscape-stroke:none;marker:none;stop-color:#000000" />
</svg>
